<mxfile host="app.diagrams.net" modified="2024-06-28T10:27:58.219Z" agent="Mozilla/5.0 (Windows NT 10.0; Win64; x64) AppleWebKit/537.36 (KHTML, like Gecko) Chrome/126.0.0.0 Safari/537.36 Edg/126.0.0.0" version="24.6.4" etag="AONa3m4UVy3-Pj8jBlle" type="github">
  <diagram name="第 1 页" id="QBfQ8YhLRGJ78GMPm8u7">
    <mxGraphModel>
      <root>
        <mxCell id="0" />
        <mxCell id="1" parent="0" />
      </root>
    </mxGraphModel>
  </diagram>
</mxfile>
